<svg width="182" height="55" viewBox="0 0 182 55" fill="none" xmlns="http://www.w3.org/2000/svg">
<path d="M22.2314 20H25.6143V30.3906C25.6143 31.5573 25.3356 32.5781 24.7783 33.4531C24.2262 34.3281 23.4528 35.0104 22.458 35.5C21.4632 35.9844 20.3044 36.2266 18.9814 36.2266C17.6533 36.2266 16.4919 35.9844 15.4971 35.5C14.5023 35.0104 13.7288 34.3281 13.1768 33.4531C12.6247 32.5781 12.3486 31.5573 12.3486 30.3906V20H15.7314V30.1016C15.7314 30.7109 15.8643 31.2526 16.1299 31.7266C16.4007 32.2005 16.7809 32.5729 17.2705 32.8438C17.7601 33.1146 18.3304 33.25 18.9814 33.25C19.6377 33.25 20.208 33.1146 20.6924 32.8438C21.182 32.5729 21.5596 32.2005 21.8252 31.7266C22.096 31.2526 22.2314 30.7109 22.2314 30.1016V20ZM28.2256 36V33.9922L36.21 22.7891H28.21V20H40.46V22.0078L32.4678 33.2109H40.4756V36H28.2256ZM43.0713 36V20H49.3838C50.5921 20 51.6234 20.2161 52.4775 20.6484C53.3369 21.0755 53.9906 21.6823 54.4385 22.4688C54.8916 23.25 55.1182 24.1693 55.1182 25.2266C55.1182 26.2891 54.889 27.2031 54.4307 27.9687C53.9723 28.7292 53.3083 29.3125 52.4385 29.7187C51.5739 30.125 50.527 30.3281 49.2979 30.3281H45.0713V27.6094H48.751C49.3968 27.6094 49.9333 27.5208 50.3604 27.3438C50.7874 27.1667 51.1051 26.901 51.3135 26.5469C51.527 26.1927 51.6338 25.7526 51.6338 25.2266C51.6338 24.6953 51.527 24.2474 51.3135 23.8828C51.1051 23.5182 50.7848 23.2422 50.3525 23.0547C49.9255 22.862 49.3864 22.7656 48.7354 22.7656H46.4541V36H43.0713ZM51.7119 28.7188L55.6885 36H51.9541L48.0635 28.7188H51.7119ZM57.5088 36V20H68.29V22.7891H60.8916V26.6016H67.7354V29.3906H60.8916V33.2109H68.3213V36H57.5088ZM70.9795 36V20H77.292C78.5055 20 79.5394 20.2318 80.3936 20.6953C81.2477 21.1536 81.8988 21.7917 82.3467 22.6094C82.7998 23.4219 83.0264 24.3594 83.0264 25.4219C83.0264 26.4844 82.7972 27.4219 82.3389 28.2344C81.8805 29.0469 81.2165 29.6797 80.3467 30.1328C79.4821 30.5859 78.4352 30.8125 77.2061 30.8125H73.1826V28.1016H76.6592C77.3102 28.1016 77.8467 27.9896 78.2686 27.7656C78.6956 27.5365 79.0133 27.2214 79.2217 26.8203C79.4352 26.4141 79.542 25.9479 79.542 25.4219C79.542 24.8906 79.4352 24.4271 79.2217 24.0312C79.0133 23.6302 78.6956 23.3203 78.2686 23.1016C77.8415 22.8776 77.2998 22.7656 76.6436 22.7656H74.3623V36H70.9795ZM99.9268 28C99.9268 29.7448 99.596 31.2292 98.9346 32.4531C98.2783 33.6771 97.3825 34.612 96.2471 35.2578C95.1169 35.8984 93.846 36.2187 92.4346 36.2187C91.0127 36.2187 89.7367 35.8958 88.6064 35.25C87.4762 34.6042 86.583 33.6693 85.9268 32.4453C85.2705 31.2214 84.9424 29.7396 84.9424 28C84.9424 26.2552 85.2705 24.7708 85.9268 23.5469C86.583 22.3229 87.4762 21.3906 88.6064 20.75C89.7367 20.1042 91.0127 19.7812 92.4346 19.7812C93.846 19.7812 95.1169 20.1042 96.2471 20.75C97.3825 21.3906 98.2783 22.3229 98.9346 23.5469C99.596 24.7708 99.9268 26.2552 99.9268 28ZM96.4971 28C96.4971 26.8698 96.3278 25.9167 95.9893 25.1406C95.6559 24.3646 95.1846 23.776 94.5752 23.375C93.9658 22.974 93.2523 22.7734 92.4346 22.7734C91.6169 22.7734 90.9033 22.974 90.2939 23.375C89.6846 23.776 89.2106 24.3646 88.8721 25.1406C88.5387 25.9167 88.3721 26.8698 88.3721 28C88.3721 29.1302 88.5387 30.0833 88.8721 30.8594C89.2106 31.6354 89.6846 32.224 90.2939 32.625C90.9033 33.026 91.6169 33.2266 92.4346 33.2266C93.2523 33.2266 93.9658 33.026 94.5752 32.625C95.1846 32.224 95.6559 31.6354 95.9893 30.8594C96.3278 30.0833 96.4971 29.1302 96.4971 28Z" fill="white"/>
<rect x="104" y="11" width="71" height="32" rx="6" fill="#3700FF"/>
<path d="M115.55 36H109.878V20H115.597C117.206 20 118.591 20.3203 119.753 20.9609C120.914 21.5964 121.808 22.5104 122.433 23.7031C123.063 24.8958 123.378 26.3229 123.378 27.9844C123.378 29.651 123.063 31.0833 122.433 32.2812C121.808 33.4792 120.909 34.3984 119.737 35.0391C118.571 35.6797 117.175 36 115.55 36ZM113.261 33.1016H115.409C116.409 33.1016 117.25 32.9245 117.933 32.5703C118.62 32.2109 119.136 31.6562 119.479 30.9062C119.828 30.151 120.003 29.1771 120.003 27.9844C120.003 26.8021 119.828 25.8359 119.479 25.0859C119.136 24.3359 118.623 23.7839 117.94 23.4297C117.258 23.0755 116.417 22.8984 115.417 22.8984H113.261V33.1016ZM127.739 36H124.114L129.638 20H133.997L139.513 36H135.888L131.88 23.6562H131.755L127.739 36ZM127.513 29.7109H136.075V32.3516H127.513V29.7109ZM149.753 24.6016C149.69 23.9714 149.422 23.4818 148.948 23.1328C148.474 22.7839 147.831 22.6094 147.019 22.6094C146.466 22.6094 146 22.6875 145.62 22.8437C145.24 22.9948 144.948 23.2057 144.745 23.4766C144.547 23.7474 144.448 24.0547 144.448 24.3984C144.438 24.6849 144.498 24.9349 144.628 25.1484C144.763 25.362 144.948 25.5469 145.183 25.7031C145.417 25.8542 145.688 25.987 145.995 26.1016C146.302 26.2109 146.631 26.3047 146.979 26.3828L148.417 26.7266C149.115 26.8828 149.756 27.0911 150.339 27.3516C150.922 27.612 151.427 27.9323 151.854 28.3125C152.282 28.6927 152.612 29.1406 152.847 29.6562C153.086 30.1719 153.209 30.763 153.214 31.4297C153.209 32.4089 152.959 33.2578 152.464 33.9766C151.974 34.6901 151.266 35.2448 150.339 35.6406C149.417 36.0312 148.305 36.2266 147.003 36.2266C145.711 36.2266 144.586 36.0286 143.628 35.6328C142.675 35.237 141.93 34.651 141.394 33.875C140.862 33.0937 140.584 32.1276 140.558 30.9766H143.831C143.868 31.513 144.021 31.9609 144.292 32.3203C144.568 32.6745 144.935 32.9427 145.394 33.125C145.857 33.3021 146.381 33.3906 146.964 33.3906C147.537 33.3906 148.034 33.3073 148.456 33.1406C148.883 32.974 149.214 32.7422 149.448 32.4453C149.683 32.1484 149.8 31.8073 149.8 31.4219C149.8 31.0625 149.693 30.7604 149.479 30.5156C149.271 30.2708 148.964 30.0625 148.558 29.8906C148.157 29.7187 147.664 29.5625 147.081 29.4219L145.339 28.9844C143.99 28.6562 142.925 28.1432 142.144 27.4453C141.362 26.7474 140.974 25.8073 140.979 24.625C140.974 23.6562 141.232 22.8099 141.753 22.0859C142.279 21.362 143 20.7969 143.917 20.3906C144.834 19.9844 145.875 19.7812 147.042 19.7812C148.229 19.7812 149.266 19.9844 150.151 20.3906C151.042 20.7969 151.735 21.362 152.229 22.0859C152.724 22.8099 152.979 23.6484 152.995 24.6016H149.753ZM155.489 36V20H158.872V26.6016H165.739V20H169.114V36H165.739V29.3906H158.872V36H155.489Z" fill="white"/>
</svg>
