<svg width="260" height="58" viewBox="0 0 260 58" fill="none" xmlns="http://www.w3.org/2000/svg">
<rect width="260" height="58" rx="4" fill="#18181B"/>
<path d="M44 33.6957H34V34.7391H44V33.6957ZM24.625 22.2174H53.375C53.7188 22.2174 54 22.4313 54 22.7183V33.6957H45.25V33.1739C45.25 32.8859 44.97 32.6522 44.625 32.6522H33.375C33.03 32.6522 32.75 32.8859 32.75 33.1739V33.6957H24V22.7183C24 22.4313 24.2812 22.2174 24.625 22.2174Z" fill="#0063F8"/>
<path d="M24 34.7391V40.4699C24 40.7569 24.2812 41 24.625 41H53.375C53.7188 41 54 40.7569 54 40.4699V34.7391H45.25V35.2609C45.25 35.5489 44.97 35.7826 44.625 35.7826H33.375C33.03 35.7826 32.75 35.5489 32.75 35.2609V34.7391H24ZM34.625 17H43.375C46.305 17 49 17.791 49 22.2132H46.5C46.5 19.063 45.0675 19.087 43.375 19.087H34.625C32.9325 19.087 31.5 19.063 31.5 22.2132H29C29 17.791 31.695 17 34.625 17Z" fill="white"/>
<path d="M69.4659 41L62.6932 17.7273H68.9091L72.4205 32.9773H72.6136L76.625 17.7273H81.6932L85.7045 33.0114H85.8977L89.4205 17.7273H95.625L88.8636 41H83.4432L79.25 26.8864H79.0682L74.875 41H69.4659ZM118.54 29.3636C118.54 31.9242 118.047 34.0947 117.062 35.875C116.078 37.6553 114.744 39.0076 113.062 39.9318C111.388 40.8561 109.509 41.3182 107.426 41.3182C105.335 41.3182 103.453 40.8523 101.778 39.9205C100.104 38.9886 98.7746 37.6364 97.7898 35.8636C96.8125 34.0833 96.3239 31.9167 96.3239 29.3636C96.3239 26.803 96.8125 24.6326 97.7898 22.8523C98.7746 21.072 100.104 19.7197 101.778 18.7955C103.453 17.8712 105.335 17.4091 107.426 17.4091C109.509 17.4091 111.388 17.8712 113.062 18.7955C114.744 19.7197 116.078 21.072 117.062 22.8523C118.047 24.6326 118.54 26.803 118.54 29.3636ZM112.79 29.3636C112.79 27.8485 112.574 26.5682 112.142 25.5227C111.718 24.4773 111.104 23.6856 110.301 23.1477C109.506 22.6098 108.547 22.3409 107.426 22.3409C106.313 22.3409 105.354 22.6098 104.551 23.1477C103.748 23.6856 103.131 24.4773 102.699 25.5227C102.275 26.5682 102.062 27.8485 102.062 29.3636C102.062 30.8788 102.275 32.1591 102.699 33.2045C103.131 34.25 103.748 35.0417 104.551 35.5795C105.354 36.1174 106.313 36.3864 107.426 36.3864C108.547 36.3864 109.506 36.1174 110.301 35.5795C111.104 35.0417 111.718 34.25 112.142 33.2045C112.574 32.1591 112.79 30.8788 112.79 29.3636ZM121.824 41V17.7273H131.438C133.18 17.7273 134.684 18.0417 135.949 18.6705C137.222 19.2917 138.203 20.1856 138.892 21.3523C139.581 22.5114 139.926 23.8864 139.926 25.4773C139.926 27.0909 139.574 28.4621 138.869 29.5909C138.165 30.7121 137.165 31.5682 135.869 32.1591C134.574 32.7424 133.04 33.0341 131.267 33.0341H125.188V28.6023H130.222C131.07 28.6023 131.778 28.4924 132.347 28.2727C132.922 28.0455 133.358 27.7045 133.653 27.25C133.949 26.7879 134.097 26.197 134.097 25.4773C134.097 24.7576 133.949 24.1629 133.653 23.6932C133.358 23.2159 132.922 22.8598 132.347 22.625C131.771 22.3826 131.063 22.2614 130.222 22.2614H127.449V41H121.824ZM134.926 30.3636L140.722 41H134.585L128.903 30.3636H134.926ZM143.011 41V17.7273H148.636V27.5682H148.943L156.636 17.7273H163.261L155.011 28.1136L163.409 41H156.682L150.886 31.8523L148.636 34.6932V41H143.011ZM177.81 24.7045C177.734 23.8712 177.397 23.2235 176.798 22.7614C176.207 22.2917 175.363 22.0568 174.264 22.0568C173.537 22.0568 172.931 22.1515 172.446 22.3409C171.961 22.5303 171.598 22.7917 171.355 23.125C171.113 23.4508 170.988 23.8258 170.98 24.25C170.965 24.5985 171.033 24.9053 171.185 25.1705C171.344 25.4356 171.571 25.6705 171.866 25.875C172.17 26.072 172.533 26.2462 172.957 26.3977C173.382 26.5492 173.859 26.6818 174.389 26.7955L176.389 27.25C177.541 27.5 178.556 27.8333 179.435 28.25C180.321 28.6667 181.063 29.1629 181.662 29.7386C182.268 30.3144 182.726 30.9773 183.037 31.7273C183.348 32.4773 183.507 33.3182 183.514 34.25C183.507 35.7197 183.135 36.9811 182.401 38.0341C181.666 39.0871 180.609 39.8939 179.23 40.4545C177.859 41.0152 176.204 41.2955 174.264 41.2955C172.317 41.2955 170.62 41.0038 169.173 40.4205C167.726 39.8371 166.601 38.9508 165.798 37.7614C164.995 36.572 164.582 35.0682 164.56 33.25H169.946C169.991 34 170.192 34.625 170.548 35.125C170.904 35.625 171.393 36.0038 172.014 36.2614C172.643 36.5189 173.37 36.6477 174.196 36.6477C174.954 36.6477 175.598 36.5455 176.128 36.3409C176.666 36.1364 177.079 35.8523 177.366 35.4886C177.654 35.125 177.802 34.7083 177.81 34.2386C177.802 33.7992 177.666 33.4242 177.401 33.1136C177.135 32.7955 176.726 32.5227 176.173 32.2955C175.628 32.0606 174.931 31.8447 174.082 31.6477L171.651 31.0795C169.635 30.6174 168.048 29.8712 166.889 28.8409C165.73 27.803 165.154 26.4015 165.162 24.6364C165.154 23.197 165.541 21.9356 166.321 20.8523C167.101 19.7689 168.181 18.9242 169.56 18.3182C170.938 17.7121 172.51 17.4091 174.276 17.4091C176.079 17.4091 177.643 17.7159 178.969 18.3295C180.302 18.9356 181.336 19.7879 182.071 20.8864C182.806 21.9848 183.181 23.2576 183.196 24.7045H177.81ZM191.98 17.7273V41H186.355V17.7273H191.98ZM204.114 41H195.511V17.7273H204.102C206.473 17.7273 208.515 18.1932 210.227 19.125C211.947 20.0492 213.273 21.3826 214.205 23.125C215.136 24.8598 215.602 26.9356 215.602 29.3523C215.602 31.7765 215.136 33.8598 214.205 35.6023C213.28 37.3447 211.958 38.6818 210.239 39.6136C208.519 40.5379 206.477 41 204.114 41ZM201.136 36.2045H203.898C205.201 36.2045 206.303 35.9848 207.205 35.5455C208.114 35.0985 208.799 34.375 209.261 33.375C209.731 32.3674 209.966 31.0265 209.966 29.3523C209.966 27.678 209.731 26.3447 209.261 25.3523C208.792 24.3523 208.098 23.6326 207.182 23.1932C206.273 22.7462 205.152 22.5227 203.818 22.5227H201.136V36.2045ZM218.886 41V17.7273H235.114V22.2955H224.511V27.0682H234.284V31.6477H224.511V36.4318H235.114V41H218.886Z" fill="white"/>
</svg>
