<svg width="276" height="58" viewBox="0 0 276 58" fill="none" xmlns="http://www.w3.org/2000/svg">
<path d="M35.6462 34.4782H24.3231V35.6956H35.6462V34.4782ZM13.7077 21.0869H46.2615C46.6508 21.0869 46.9692 21.3365 46.9692 21.6713V34.4782H37.0615V33.8696C37.0615 33.5336 36.7445 33.2609 36.3538 33.2609H23.6154C23.2247 33.2609 22.9077 33.5336 22.9077 33.8696V34.4782H13V21.6713C13 21.3365 13.3185 21.0869 13.7077 21.0869Z" fill="#0063F8"/>
<path d="M13 35.6957V42.3816C13 42.7163 13.3185 43 13.7077 43H46.2615C46.6508 43 46.9692 42.7163 46.9692 42.3816V35.6957H37.0615V36.3043C37.0615 36.6403 36.7445 36.913 36.3538 36.913H23.6154C23.2247 36.913 22.9077 36.6403 22.9077 36.3043V35.6957H13ZM25.0308 15H34.9385C38.2561 15 41.3077 15.9228 41.3077 21.0821H38.4769C38.4769 17.4068 36.8549 17.4348 34.9385 17.4348H25.0308C23.1143 17.4348 21.4923 17.4068 21.4923 21.0821H18.6615C18.6615 15.9228 21.7131 15 25.0308 15Z" fill="white"/>
<path d="M64.9595 43L56.9169 15.3636H64.2983L68.468 33.473H68.6974L73.4609 15.3636H79.4794L84.2429 33.5135H84.4723L88.6555 15.3636H96.0234L87.9943 43H81.5575L76.5781 26.2401H76.3622L71.3828 43H64.9595ZM123.235 29.1818C123.235 32.2225 122.65 34.8 121.48 36.9141C120.311 39.0282 118.728 40.634 116.73 41.7315C114.742 42.8291 112.511 43.3778 110.037 43.3778C107.554 43.3778 105.319 42.8246 103.331 41.718C101.342 40.6115 99.7636 39.0057 98.5941 36.9006C97.4336 34.7865 96.8533 32.2135 96.8533 29.1818C96.8533 26.1411 97.4336 23.5637 98.5941 21.4496C99.7636 19.3355 101.342 17.7296 103.331 16.6321C105.319 15.5346 107.554 14.9858 110.037 14.9858C112.511 14.9858 114.742 15.5346 116.73 16.6321C118.728 17.7296 120.311 19.3355 121.48 21.4496C122.65 23.5637 123.235 26.1411 123.235 29.1818ZM116.407 29.1818C116.407 27.3826 116.15 25.8622 115.637 24.6207C115.134 23.3793 114.405 22.4392 113.451 21.8004C112.507 21.1617 111.369 20.8423 110.037 20.8423C108.715 20.8423 107.577 21.1617 106.623 21.8004C105.67 22.4392 104.936 23.3793 104.424 24.6207C103.92 25.8622 103.668 27.3826 103.668 29.1818C103.668 30.9811 103.92 32.5014 104.424 33.7429C104.936 34.9844 105.67 35.9245 106.623 36.5632C107.577 37.2019 108.715 37.5213 110.037 37.5213C111.369 37.5213 112.507 37.2019 113.451 36.5632C114.405 35.9245 115.134 34.9844 115.637 33.7429C116.15 32.5014 116.407 30.9811 116.407 29.1818ZM127.135 43V15.3636H138.551C140.62 15.3636 142.406 15.737 143.908 16.4837C145.419 17.2214 146.584 18.2829 147.403 19.6683C148.222 21.0447 148.631 22.6776 148.631 24.5668C148.631 26.483 148.213 28.1113 147.376 29.4517C146.539 30.7831 145.352 31.7997 143.814 32.5014C142.275 33.1941 140.453 33.5405 138.348 33.5405H131.129V28.2777H137.107C138.114 28.2777 138.956 28.1473 139.63 27.8864C140.314 27.6165 140.831 27.2116 141.182 26.6719C141.533 26.1231 141.708 25.4214 141.708 24.5668C141.708 23.7121 141.533 23.0059 141.182 22.4482C140.831 21.8814 140.314 21.4586 139.63 21.1797C138.947 20.8918 138.105 20.7479 137.107 20.7479H133.814V43H127.135ZM142.694 30.3693L149.576 43H142.289L135.542 30.3693H142.694ZM152.295 43V15.3636H158.974V27.0497H159.339L168.474 15.3636H176.342L166.545 27.6974L176.517 43H168.528L161.646 32.1371L158.974 35.5107V43H152.295ZM193.618 23.6491C193.528 22.6596 193.127 21.8904 192.417 21.3416C191.715 20.7839 190.712 20.505 189.407 20.505C188.544 20.505 187.824 20.6174 187.248 20.8423C186.673 21.0672 186.241 21.3776 185.953 21.7734C185.665 22.1603 185.517 22.6056 185.508 23.1094C185.49 23.5232 185.571 23.8875 185.751 24.2024C185.939 24.5173 186.209 24.7962 186.56 25.0391C186.92 25.273 187.352 25.4799 187.856 25.6598C188.359 25.8397 188.926 25.9972 189.556 26.1321L191.931 26.6719C193.298 26.9688 194.504 27.3646 195.547 27.8594C196.6 28.3542 197.482 28.9434 198.192 29.6271C198.912 30.3108 199.456 31.098 199.825 31.9886C200.194 32.8793 200.383 33.8778 200.392 34.9844C200.383 36.7296 199.942 38.2275 199.069 39.478C198.197 40.7285 196.942 41.6866 195.305 42.3523C193.676 43.018 191.711 43.3509 189.407 43.3509C187.095 43.3509 185.08 43.0045 183.362 42.3118C181.644 41.6191 180.308 40.5665 179.354 39.1541C178.401 37.7417 177.91 35.956 177.883 33.7969H184.28C184.334 34.6875 184.572 35.4297 184.995 36.0234C185.418 36.6172 185.998 37.067 186.736 37.3729C187.482 37.6787 188.346 37.8317 189.327 37.8317C190.226 37.8317 190.991 37.7102 191.621 37.4673C192.259 37.2244 192.75 36.8871 193.091 36.4553C193.433 36.0234 193.609 35.5286 193.618 34.9709C193.609 34.4491 193.447 34.0038 193.132 33.6349C192.817 33.2571 192.331 32.9332 191.675 32.6634C191.027 32.3845 190.199 32.1281 189.192 31.8942L186.304 31.2195C183.911 30.6707 182.026 29.7846 180.65 28.5611C179.273 27.3286 178.59 25.6643 178.599 23.5682C178.59 21.8589 179.048 20.361 179.975 19.0746C180.902 17.7881 182.184 16.785 183.821 16.0653C185.458 15.3456 187.325 14.9858 189.421 14.9858C191.562 14.9858 193.42 15.3501 194.994 16.0788C196.577 16.7985 197.805 17.8106 198.678 19.1151C199.551 20.4195 199.996 21.9309 200.014 23.6491H193.618ZM210.445 15.3636V43H203.765V15.3636H210.445ZM224.854 43H214.638V15.3636H224.84C227.656 15.3636 230.08 15.9169 232.114 17.0234C234.156 18.121 235.73 19.7043 236.837 21.7734C237.943 23.8336 238.496 26.2985 238.496 29.1683C238.496 32.0471 237.943 34.5211 236.837 36.5902C235.739 38.6593 234.169 40.2472 232.127 41.3537C230.085 42.4512 227.661 43 224.854 43ZM221.318 37.3054H224.597C226.145 37.3054 227.454 37.0445 228.524 36.5227C229.604 35.992 230.418 35.1328 230.967 33.9453C231.524 32.7488 231.803 31.1565 231.803 29.1683C231.803 27.1802 231.524 25.5968 230.967 24.4183C230.409 23.2308 229.586 22.3762 228.497 21.8544C227.418 21.3236 226.086 21.0582 224.503 21.0582H221.318V37.3054ZM242.396 43V15.3636H261.666V20.7884H249.076V26.456H260.681V31.8942H249.076V37.5753H261.666V43H242.396Z" fill="white"/>
</svg>
