<svg width="243" height="51" viewBox="0 0 243 51" fill="none" xmlns="http://www.w3.org/2000/svg">
<path d="M10.68 40L2.21413 10.9091H9.98402L14.3732 29.9716H14.6147L19.6289 10.9091H25.9641L30.9783 30.0142H31.2198L35.6232 10.9091H43.3789L34.9272 40H28.1516L22.9102 22.358H22.6829L17.4414 40H10.68ZM72.0224 25.4545C72.0224 28.6553 71.4068 31.3684 70.1758 33.5938C68.9447 35.8191 67.2781 37.5095 65.1758 38.6648C63.083 39.8201 60.7345 40.3977 58.1303 40.3977C55.5167 40.3977 53.1635 39.8153 51.0707 38.6506C48.9779 37.4858 47.3159 35.7955 46.0849 33.5795C44.8633 31.3542 44.2525 28.6458 44.2525 25.4545C44.2525 22.2538 44.8633 19.5407 46.0849 17.3153C47.3159 15.09 48.9779 13.3996 51.0707 12.2443C53.1635 11.089 55.5167 10.5114 58.1303 10.5114C60.7345 10.5114 63.083 11.089 65.1758 12.2443C67.2781 13.3996 68.9447 15.09 70.1758 17.3153C71.4068 19.5407 72.0224 22.2538 72.0224 25.4545ZM64.8349 25.4545C64.8349 23.5606 64.565 21.9602 64.0252 20.6534C63.4949 19.3466 62.7279 18.357 61.7241 17.6847C60.7298 17.0123 59.5318 16.6761 58.1303 16.6761C56.7383 16.6761 55.5404 17.0123 54.5366 17.6847C53.5328 18.357 52.761 19.3466 52.2212 20.6534C51.6909 21.9602 51.4258 23.5606 51.4258 25.4545C51.4258 27.3485 51.6909 28.9489 52.2212 30.2557C52.761 31.5625 53.5328 32.5521 54.5366 33.2244C55.5404 33.8968 56.7383 34.233 58.1303 34.233C59.5318 34.233 60.7298 33.8968 61.7241 33.2244C62.7279 32.5521 63.4949 31.5625 64.0252 30.2557C64.565 28.9489 64.8349 27.3485 64.8349 25.4545ZM76.1275 40V10.9091H88.1445C90.3226 10.9091 92.2023 11.3021 93.7837 12.0881C95.3746 12.8646 96.601 13.982 97.4627 15.4403C98.3245 16.8892 98.7553 18.608 98.7553 20.5966C98.7553 22.6136 98.315 24.3277 97.4343 25.7386C96.5536 27.1402 95.3036 28.2102 93.6843 28.9489C92.065 29.678 90.1474 30.0426 87.9315 30.0426H80.332V24.5028H86.6246C87.6853 24.5028 88.5707 24.3655 89.2809 24.0909C90.0006 23.8068 90.5451 23.3807 90.9144 22.8125C91.2837 22.2348 91.4684 21.4962 91.4684 20.5966C91.4684 19.697 91.2837 18.9536 90.9144 18.3665C90.5451 17.7699 90.0006 17.3248 89.2809 17.0312C88.5612 16.7282 87.6758 16.5767 86.6246 16.5767H83.1587V40H76.1275ZM92.5053 26.7045L99.7496 40H92.0792L84.9769 26.7045H92.5053ZM102.612 40V10.9091H109.643V23.2102H110.027L119.643 10.9091H127.924L117.612 23.892L128.109 40H119.7L112.456 28.5653L109.643 32.1165V40H102.612Z" fill="white"/>
<path d="M135 0H239C241.209 0 243 1.79086 243 4V47C243 49.2091 241.209 51 239 51H135V0Z" fill="#3700FF"/>
<path d="M161.047 19.6307C160.953 18.589 160.531 17.7794 159.783 17.2017C159.044 16.6146 157.989 16.321 156.615 16.321C155.706 16.321 154.949 16.4394 154.343 16.6761C153.737 16.9129 153.282 17.2396 152.979 17.6562C152.676 18.0634 152.52 18.5322 152.51 19.0625C152.491 19.4981 152.577 19.8816 152.766 20.2131C152.965 20.5445 153.249 20.8381 153.618 21.0938C153.997 21.34 154.452 21.5578 154.982 21.7472C155.512 21.9366 156.109 22.1023 156.772 22.2443L159.272 22.8125C160.711 23.125 161.98 23.5417 163.078 24.0625C164.186 24.5833 165.114 25.2036 165.863 25.9233C166.62 26.643 167.193 27.4716 167.581 28.4091C167.97 29.3466 168.168 30.3977 168.178 31.5625C168.168 33.3996 167.704 34.9763 166.786 36.2926C165.867 37.6089 164.546 38.6174 162.823 39.3182C161.109 40.0189 159.04 40.3693 156.615 40.3693C154.182 40.3693 152.06 40.0047 150.252 39.2756C148.443 38.5464 147.037 37.4384 146.033 35.9517C145.029 34.465 144.513 32.5852 144.485 30.3125H151.218C151.275 31.25 151.525 32.0312 151.971 32.6562C152.416 33.2812 153.026 33.7547 153.803 34.0767C154.589 34.3987 155.498 34.5597 156.53 34.5597C157.477 34.5597 158.282 34.4318 158.945 34.1761C159.617 33.9205 160.133 33.5653 160.493 33.1108C160.853 32.6562 161.038 32.1354 161.047 31.5483C161.038 30.9991 160.867 30.5303 160.536 30.142C160.204 29.7443 159.693 29.4034 159.002 29.1193C158.32 28.8258 157.449 28.5559 156.388 28.3097L153.348 27.5994C150.829 27.0218 148.846 26.089 147.397 24.8011C145.948 23.5038 145.228 21.7519 145.238 19.5455C145.228 17.7462 145.711 16.1695 146.686 14.8153C147.662 13.4612 149.011 12.4053 150.735 11.6477C152.458 10.8902 154.423 10.5114 156.63 10.5114C158.883 10.5114 160.839 10.8949 162.496 11.6619C164.163 12.4195 165.455 13.4848 166.374 14.858C167.292 16.2311 167.761 17.822 167.78 19.6307H161.047ZM178.76 10.9091V40H171.729V10.9091H178.76ZM193.927 40H183.174V10.9091H193.913C196.877 10.9091 199.429 11.4915 201.569 12.6562C203.719 13.8116 205.376 15.4782 206.541 17.6562C207.706 19.8248 208.288 22.4195 208.288 25.4403C208.288 28.4706 207.706 31.0748 206.541 33.2528C205.386 35.4309 203.733 37.1023 201.583 38.267C199.434 39.4223 196.882 40 193.927 40ZM190.206 34.0057H193.657C195.286 34.0057 196.664 33.7311 197.791 33.1818C198.927 32.6231 199.784 31.7188 200.362 30.4688C200.949 29.2093 201.243 27.5331 201.243 25.4403C201.243 23.3475 200.949 21.6809 200.362 20.4403C199.775 19.1903 198.908 18.2907 197.762 17.7415C196.626 17.1828 195.225 16.9034 193.558 16.9034H190.206V34.0057ZM212.393 40V10.9091H232.677V16.6193H219.424V22.5852H231.64V28.3097H219.424V34.2898H232.677V40H212.393Z" fill="white"/>
</svg>
