
<svg width="260" height="58" viewBox="0 0 260 58" fill="none" xmlns="http://www.w3.org/2000/svg">
<path d="M37.6996 17V41.4361" stroke="#EBE2E0" stroke-width="2" stroke-linecap="round" stroke-linejoin="round"/>
<path d="M48.3992 22.4303V41.4361" stroke="#EBE2E0" stroke-width="2" stroke-linecap="round" stroke-linejoin="round"/>
<path d="M27 26.5029V41.4361" stroke="#EBE2E0" stroke-width="2" stroke-linecap="round" stroke-linejoin="round"/>
<path d="M65.2066 41L58.4339 17.7273H64.6498L68.1612 32.9773H68.3544L72.3657 17.7273H77.4339L81.4453 33.0114H81.6385L85.1612 17.7273H91.3657L84.6044 41H79.1839L74.9907 26.8864H74.8089L70.6157 41H65.2066ZM114.281 29.3636C114.281 31.9242 113.788 34.0947 112.803 35.875C111.818 37.6553 110.485 39.0076 108.803 39.9318C107.129 40.8561 105.25 41.3182 103.167 41.3182C101.076 41.3182 99.1934 40.8523 97.5191 39.9205C95.8449 38.9886 94.5154 37.6364 93.5305 35.8636C92.5532 34.0833 92.0646 31.9167 92.0646 29.3636C92.0646 26.803 92.5532 24.6326 93.5305 22.8523C94.5154 21.072 95.8449 19.7197 97.5191 18.7955C99.1934 17.8712 101.076 17.4091 103.167 17.4091C105.25 17.4091 107.129 17.8712 108.803 18.7955C110.485 19.7197 111.818 21.072 112.803 22.8523C113.788 24.6326 114.281 26.803 114.281 29.3636ZM108.531 29.3636C108.531 27.8485 108.315 26.5682 107.883 25.5227C107.459 24.4773 106.845 23.6856 106.042 23.1477C105.246 22.6098 104.288 22.3409 103.167 22.3409C102.053 22.3409 101.095 22.6098 100.292 23.1477C99.4888 23.6856 98.8714 24.4773 98.4396 25.5227C98.0154 26.5682 97.8032 27.8485 97.8032 29.3636C97.8032 30.8788 98.0154 32.1591 98.4396 33.2045C98.8714 34.25 99.4888 35.0417 100.292 35.5795C101.095 36.1174 102.053 36.3864 103.167 36.3864C104.288 36.3864 105.246 36.1174 106.042 35.5795C106.845 35.0417 107.459 34.25 107.883 33.2045C108.315 32.1591 108.531 30.8788 108.531 29.3636ZM117.565 41V17.7273H127.178C128.921 17.7273 130.424 18.0417 131.69 18.6705C132.962 19.2917 133.943 20.1856 134.633 21.3523C135.322 22.5114 135.667 23.8864 135.667 25.4773C135.667 27.0909 135.315 28.4621 134.61 29.5909C133.906 30.7121 132.906 31.5682 131.61 32.1591C130.315 32.7424 128.781 33.0341 127.008 33.0341H120.928V28.6023H125.962C126.811 28.6023 127.519 28.4924 128.087 28.2727C128.663 28.0455 129.099 27.7045 129.394 27.25C129.69 26.7879 129.837 26.197 129.837 25.4773C129.837 24.7576 129.69 24.1629 129.394 23.6932C129.099 23.2159 128.663 22.8598 128.087 22.625C127.512 22.3826 126.803 22.2614 125.962 22.2614H123.19V41H117.565ZM130.667 30.3636L136.462 41H130.326L124.644 30.3636H130.667ZM138.752 41V17.7273H144.377V27.5682H144.684L152.377 17.7273H159.002L150.752 28.1136L159.15 41H152.423L146.627 31.8523L144.377 34.6932V41H138.752ZM173.55 24.7045C173.475 23.8712 173.138 23.2235 172.539 22.7614C171.948 22.2917 171.103 22.0568 170.005 22.0568C169.278 22.0568 168.672 22.1515 168.187 22.3409C167.702 22.5303 167.338 22.7917 167.096 23.125C166.853 23.4508 166.728 23.8258 166.721 24.25C166.706 24.5985 166.774 24.9053 166.925 25.1705C167.084 25.4356 167.312 25.6705 167.607 25.875C167.91 26.072 168.274 26.2462 168.698 26.3977C169.122 26.5492 169.6 26.6818 170.13 26.7955L172.13 27.25C173.281 27.5 174.297 27.8333 175.175 28.25C176.062 28.6667 176.804 29.1629 177.403 29.7386C178.009 30.3144 178.467 30.9773 178.778 31.7273C179.088 32.4773 179.247 33.3182 179.255 34.25C179.247 35.7197 178.876 36.9811 178.141 38.0341C177.406 39.0871 176.35 39.8939 174.971 40.4545C173.6 41.0152 171.944 41.2955 170.005 41.2955C168.058 41.2955 166.361 41.0038 164.914 40.4205C163.467 39.8371 162.342 38.9508 161.539 37.7614C160.736 36.572 160.323 35.0682 160.3 33.25H165.687C165.732 34 165.933 34.625 166.289 35.125C166.645 35.625 167.134 36.0038 167.755 36.2614C168.384 36.5189 169.111 36.6477 169.937 36.6477C170.694 36.6477 171.338 36.5455 171.869 36.3409C172.406 36.1364 172.819 35.8523 173.107 35.4886C173.395 35.125 173.543 34.7083 173.55 34.2386C173.543 33.7992 173.406 33.4242 173.141 33.1136C172.876 32.7955 172.467 32.5227 171.914 32.2955C171.369 32.0606 170.672 31.8447 169.823 31.6477L167.391 31.0795C165.376 30.6174 163.789 29.8712 162.63 28.8409C161.471 27.803 160.895 26.4015 160.903 24.6364C160.895 23.197 161.281 21.9356 162.062 20.8523C162.842 19.7689 163.922 18.9242 165.3 18.3182C166.679 17.7121 168.251 17.4091 170.016 17.4091C171.819 17.4091 173.384 17.7159 174.709 18.3295C176.043 18.9356 177.077 19.7879 177.812 20.8864C178.547 21.9848 178.922 23.2576 178.937 24.7045H173.55ZM187.721 17.7273V41H182.096V17.7273H187.721ZM199.854 41H191.252V17.7273H199.843C202.214 17.7273 204.256 18.1932 205.968 19.125C207.688 20.0492 209.013 21.3826 209.945 23.125C210.877 24.8598 211.343 26.9356 211.343 29.3523C211.343 31.7765 210.877 33.8598 209.945 35.6023C209.021 37.3447 207.699 38.6818 205.979 39.6136C204.26 40.5379 202.218 41 199.854 41ZM196.877 36.2045H199.638C200.941 36.2045 202.044 35.9848 202.945 35.5455C203.854 35.0985 204.54 34.375 205.002 33.375C205.472 32.3674 205.707 31.0265 205.707 29.3523C205.707 27.678 205.472 26.3447 205.002 25.3523C204.532 24.3523 203.839 23.6326 202.923 23.1932C202.013 22.7462 200.892 22.5227 199.559 22.5227H196.877V36.2045ZM214.627 41V17.7273H230.854V22.2955H220.252V27.0682H230.025V31.6477H220.252V36.4318H230.854V41H214.627Z" fill="url(#paint0_linear_10_68)"/>
<defs>
<linearGradient id="paint0_linear_10_68" x1="86.0707" y1="21.0833" x2="202.713" y2="28.2366" gradientUnits="userSpaceOnUse">
<stop stop-color="#EBE2E0"/>
<stop offset="0.234019" stop-color="#99B0ED"/>
<stop offset="0.61" stop-color="#3700FF"/>
<stop offset="0.8" stop-color="#99B0ED"/>
<stop offset="1" stop-color="#EBE2E0"/>
</linearGradient>
</defs>
</svg>
