<svg width="300" height="51" viewBox="0 0 300 51" fill="none" xmlns="http://www.w3.org/2000/svg">
<path d="M20.2621 10.9091H27.2791V29.6733C27.2791 31.8419 26.763 33.7311 25.7308 35.3409C24.6986 36.9413 23.2592 38.1818 21.4126 39.0625C19.5661 39.9337 17.4212 40.3693 14.978 40.3693C12.5064 40.3693 10.3473 39.9337 8.50071 39.0625C6.65412 38.1818 5.21946 36.9413 4.19673 35.3409C3.17401 33.7311 2.66264 31.8419 2.66264 29.6733V10.9091H9.69389V29.0625C9.69389 30.0663 9.9117 30.9612 10.3473 31.7472C10.7924 32.5331 11.4126 33.1487 12.2081 33.5938C13.0036 34.0388 13.9268 34.2614 14.978 34.2614C16.0291 34.2614 16.9477 34.0388 17.7337 33.5938C18.5291 33.1487 19.1494 32.5331 19.5945 31.7472C20.0395 30.9612 20.2621 30.0663 20.2621 29.0625V10.9091ZM31.5866 40V35.9943L45.7202 16.6193H31.6009V10.9091H54.6122V14.9148L40.4787 34.2898H54.598V40H31.5866ZM58.9126 40V10.9091H70.9297C73.1077 10.9091 74.9875 11.3021 76.5689 12.0881C78.1598 12.8646 79.3861 13.982 80.2479 15.4403C81.1096 16.8892 81.5405 18.608 81.5405 20.5966C81.5405 22.6136 81.1001 24.3277 80.2195 25.7386C79.3388 27.1402 78.0888 28.2102 76.4695 28.9489C74.8501 29.678 72.9325 30.0426 70.7166 30.0426H63.1172V24.5028H69.4098C70.4704 24.5028 71.3558 24.3655 72.0661 24.0909C72.7857 23.8068 73.3303 23.3807 73.6996 22.8125C74.0689 22.2348 74.2536 21.4962 74.2536 20.5966C74.2536 19.697 74.0689 18.9536 73.6996 18.3665C73.3303 17.7699 72.7857 17.3248 72.0661 17.0312C71.3464 16.7282 70.4609 16.5767 69.4098 16.5767H65.9439V40H58.9126ZM75.2905 26.7045L82.5348 40H74.8643L67.7621 26.7045H75.2905ZM85.397 40V10.9091H105.681V16.6193H92.4283V22.5852H104.644V28.3097H92.4283V34.2898H105.681V40H85.397ZM110.085 40V10.9091H122.102C124.28 10.9091 126.159 11.3352 127.741 12.1875C129.332 13.0303 130.558 14.2093 131.42 15.7244C132.281 17.2301 132.712 18.982 132.712 20.9801C132.712 22.9877 132.272 24.7443 131.391 26.25C130.52 27.7462 129.275 28.9062 127.656 29.7301C126.036 30.554 124.114 30.9659 121.888 30.9659H114.474V25.4261H120.582C121.642 25.4261 122.528 25.2415 123.238 24.8722C123.958 24.5028 124.502 23.9867 124.871 23.3239C125.241 22.6515 125.425 21.8703 125.425 20.9801C125.425 20.0805 125.241 19.304 124.871 18.6506C124.502 17.9877 123.958 17.4763 123.238 17.1165C122.518 16.7566 121.633 16.5767 120.582 16.5767H117.116V40H110.085ZM163.636 25.4545C163.636 28.6553 163.02 31.3684 161.789 33.5938C160.558 35.8191 158.891 37.5095 156.789 38.6648C154.696 39.8201 152.348 40.3977 149.744 40.3977C147.13 40.3977 144.777 39.8153 142.684 38.6506C140.591 37.4858 138.929 35.7955 137.698 33.5795C136.477 31.3542 135.866 28.6458 135.866 25.4545C135.866 22.2538 136.477 19.5407 137.698 17.3153C138.929 15.09 140.591 13.3996 142.684 12.2443C144.777 11.089 147.13 10.5114 149.744 10.5114C152.348 10.5114 154.696 11.089 156.789 12.2443C158.891 13.3996 160.558 15.09 161.789 17.3153C163.02 19.5407 163.636 22.2538 163.636 25.4545ZM156.448 25.4545C156.448 23.5606 156.178 21.9602 155.638 20.6534C155.108 19.3466 154.341 18.357 153.337 17.6847C152.343 17.0123 151.145 16.6761 149.744 16.6761C148.352 16.6761 147.154 17.0123 146.15 17.6847C145.146 18.357 144.374 19.3466 143.835 20.6534C143.304 21.9602 143.039 23.5606 143.039 25.4545C143.039 27.3485 143.304 28.9489 143.835 30.2557C144.374 31.5625 145.146 32.5521 146.15 33.2244C147.154 33.8968 148.352 34.233 149.744 34.233C151.145 34.233 152.343 33.8968 153.337 33.2244C154.341 32.5521 155.108 31.5625 155.638 30.2557C156.178 28.9489 156.448 27.3485 156.448 25.4545Z" fill="white"/>
<rect x="171" width="129" height="51" rx="8" fill="#3700FF"/>
<path d="M191.56 40H180.807V10.9091H191.546C194.51 10.9091 197.062 11.4915 199.202 12.6562C201.352 13.8116 203.009 15.4782 204.174 17.6562C205.338 19.8248 205.921 22.4195 205.921 25.4403C205.921 28.4706 205.338 31.0748 204.174 33.2528C203.018 35.4309 201.366 37.1023 199.216 38.267C197.067 39.4223 194.515 40 191.56 40ZM187.838 34.0057H191.29C192.919 34.0057 194.297 33.7311 195.424 33.1818C196.56 32.6231 197.417 31.7188 197.995 30.4688C198.582 29.2093 198.875 27.5331 198.875 25.4403C198.875 23.3475 198.582 21.6809 197.995 20.4403C197.408 19.1903 196.541 18.2907 195.395 17.7415C194.259 17.1828 192.857 16.9034 191.191 16.9034H187.838V34.0057ZM214.6 40H207.043L216.858 10.9091H226.219L236.034 40H228.478L221.645 18.2386H221.418L214.6 40ZM213.591 28.5511H229.387V33.892H213.591V28.5511ZM253.993 19.6307C253.898 18.589 253.476 17.7794 252.728 17.2017C251.99 16.6146 250.934 16.321 249.561 16.321C248.652 16.321 247.894 16.4394 247.288 16.6761C246.682 16.9129 246.227 17.2396 245.924 17.6562C245.621 18.0634 245.465 18.5322 245.456 19.0625C245.437 19.4981 245.522 19.8816 245.711 20.2131C245.91 20.5445 246.194 20.8381 246.564 21.0938C246.942 21.34 247.397 21.5578 247.927 21.7472C248.458 21.9366 249.054 22.1023 249.717 22.2443L252.217 22.8125C253.656 23.125 254.925 23.5417 256.024 24.0625C257.132 24.5833 258.06 25.2036 258.808 25.9233C259.565 26.643 260.138 27.4716 260.527 28.4091C260.915 29.3466 261.114 30.3977 261.123 31.5625C261.114 33.3996 260.65 34.9763 259.731 36.2926C258.813 37.6089 257.492 38.6174 255.768 39.3182C254.054 40.0189 251.985 40.3693 249.561 40.3693C247.127 40.3693 245.006 40.0047 243.197 39.2756C241.388 38.5464 239.982 37.4384 238.978 35.9517C237.975 34.465 237.458 32.5852 237.43 30.3125H244.163C244.22 31.25 244.471 32.0312 244.916 32.6562C245.361 33.2812 245.972 33.7547 246.748 34.0767C247.534 34.3987 248.443 34.5597 249.475 34.5597C250.422 34.5597 251.227 34.4318 251.89 34.1761C252.563 33.9205 253.079 33.5653 253.439 33.1108C253.798 32.6562 253.983 32.1354 253.993 31.5483C253.983 30.9991 253.813 30.5303 253.481 30.142C253.15 29.7443 252.638 29.4034 251.947 29.1193C251.265 28.8258 250.394 28.5559 249.333 28.3097L246.294 27.5994C243.775 27.0218 241.791 26.089 240.342 24.8011C238.893 23.5038 238.173 21.7519 238.183 19.5455C238.173 17.7462 238.656 16.1695 239.632 14.8153C240.607 13.4612 241.957 12.4053 243.68 11.6477C245.404 10.8902 247.368 10.5114 249.575 10.5114C251.829 10.5114 253.784 10.8949 255.441 11.6619C257.108 12.4195 258.401 13.4848 259.319 14.858C260.238 16.2311 260.707 17.822 260.725 19.6307H253.993ZM264.674 40V10.9091H271.706V22.5852H283.169V10.9091H290.186V40H283.169V28.3097H271.706V40H264.674Z" fill="white"/>
</svg>
